<svg width="461" height="353" viewBox="0 0 461 353" fill="none" xmlns="http://www.w3.org/2000/svg">
<path d="M0 39.2222C0 28.8198 4.41222 18.8435 12.266 11.4879C20.1198 4.13233 30.7718 0 41.8788 0H418.788C429.895 0 440.547 4.13233 448.401 11.4879C456.254 18.8435 460.667 28.8198 460.667 39.2222C460.667 49.6246 456.254 59.6009 448.401 66.9565C440.547 74.3121 429.895 78.4444 418.788 78.4444H41.8788C30.7718 78.4444 20.1198 74.3121 12.266 66.9565C4.41222 59.6009 0 49.6246 0 39.2222ZM0 176.5C0 166.098 4.41222 156.121 12.266 148.766C20.1198 141.41 30.7718 137.278 41.8788 137.278H418.788C429.895 137.278 440.547 141.41 448.401 148.766C456.254 156.121 460.667 166.098 460.667 176.5C460.667 186.902 456.254 196.879 448.401 204.234C440.547 211.59 429.895 215.722 418.788 215.722H41.8788C30.7718 215.722 20.1198 211.59 12.266 204.234C4.41222 196.879 0 186.902 0 176.5ZM41.8788 274.556C30.7718 274.556 20.1198 278.688 12.266 286.043C4.41222 293.399 0 303.375 0 313.778C0 324.18 4.41222 334.156 12.266 341.512C20.1198 348.868 30.7718 353 41.8788 353H418.788C429.895 353 440.547 348.868 448.401 341.512C456.254 334.156 460.667 324.18 460.667 313.778C460.667 303.375 456.254 293.399 448.401 286.043C440.547 278.688 429.895 274.556 418.788 274.556H41.8788Z" fill="white"/>
</svg>
