<svg xmlns="http://www.w3.org/2000/svg" version="1.1" xmlns:xlink="http://www.w3.org/1999/xlink" width="512" height="512" x="0" y="0" viewBox="0 0 48 48" style="enable-background:new 0 0 512 512" xml:space="preserve" class=""><g><g data-name="fast forward"><path d="M23.389 20.306 8.617 8.669a2.853 2.853 0 0 0-3.1-.374 4.425 4.425 0 0 0-2.207 4.069v23.272a4.424 4.424 0 0 0 2.207 4.069 2.88 2.88 0 0 0 1.259.3 2.972 2.972 0 0 0 1.845-.672L23.389 27.7A4.685 4.685 0 0 0 25 24a4.68 4.68 0 0 0-1.611-3.694z" fill="#FFFFFF" opacity="1" data-original="#000000" class=""></path><path d="M43.082 20.305 28.312 8.669a2.855 2.855 0 0 0-3.1-.374A4.421 4.421 0 0 0 23 12.364v23.272a4.427 4.427 0 0 0 2.208 4.07 2.893 2.893 0 0 0 1.26.3 2.976 2.976 0 0 0 1.844-.672l14.769-11.64A4.675 4.675 0 0 0 44.694 24a4.679 4.679 0 0 0-1.612-3.695z" fill="#FFFFFF" opacity="1" data-original="#000000" class=""></path></g></g></svg>