<svg width="611" height="611" viewBox="0 0 611 611" fill="none" xmlns="http://www.w3.org/2000/svg">
<g clip-path="url(#clip0_26_2)">
<rect width="611" height="611" fill="#181818"/>
<path d="M591.066 78.2053C589.203 76.5916 587.016 75.3965 584.651 74.7007C582.286 74.0049 579.8 73.8246 577.36 74.172L336.474 108.575C327.996 109.786 321.701 117.044 321.701 125.604V327.279C311.509 321.343 299.678 317.926 287.057 317.926C248.978 317.926 218 348.896 218 386.963C218 425.03 248.978 456 287.057 456C325.135 456 356.113 425.03 356.113 386.963V209.328L562.587 179.84V292.877C552.396 286.941 540.565 283.523 527.943 283.523C489.865 283.523 458.887 314.494 458.887 352.561C458.887 390.628 489.865 421.598 527.943 421.598C566.022 421.598 597 390.628 597 352.561V91.2007C596.999 88.7361 596.469 86.3004 595.446 84.0584C594.422 81.8164 592.928 79.8203 591.066 78.2053ZM287.056 421.596C267.954 421.596 252.412 406.059 252.412 386.962C252.412 367.865 267.954 352.328 287.056 352.328C306.158 352.328 321.7 367.865 321.7 386.962C321.7 406.059 306.158 421.596 287.056 421.596ZM562.587 145.087L356.112 174.576V140.523L562.587 111.034V145.087ZM527.943 387.193C508.84 387.193 493.299 371.656 493.299 352.559C493.299 333.462 508.84 317.925 527.943 317.925C547.045 317.925 562.587 333.462 562.587 352.559C562.587 371.656 547.045 387.193 527.943 387.193Z" fill="#FAFF00"/>
<rect x="356" y="38" width="261" height="435" fill="#181818"/>
<rect x="208" y="62" width="261" height="60" fill="#181818"/>
</g>
<defs>
<clipPath id="clip0_26_2">
<rect width="611" height="611" fill="white"/>
</clipPath>
</defs>
</svg>
