<svg width="862" height="400" viewBox="0 0 862 400" fill="none" xmlns="http://www.w3.org/2000/svg">
<g clip-path="url(#clip0_8_2)">
<path d="M84.591 261.876C84.591 259.07 84.835 255.776 85.323 251.994C85.811 248.212 86.726 243.942 88.068 239.184C89.41 234.304 91.423 228.875 94.107 222.897L116.616 230.766C115.274 234.548 114.115 238.025 113.139 241.197C112.163 244.247 111.431 247.114 110.943 249.798C110.455 252.36 110.211 254.922 110.211 257.484C110.211 261.144 111.004 264.56 112.59 267.732C114.176 270.904 116.555 273.649 119.727 275.967C122.899 278.407 126.803 280.298 131.439 281.64C136.197 282.982 141.687 283.653 147.909 283.653C154.985 283.653 161.207 282.982 166.575 281.64C172.065 280.42 176.64 278.773 180.3 276.699C184.082 274.747 186.949 272.673 188.901 270.477C190.853 268.281 191.829 266.268 191.829 264.438C191.829 262.974 190.792 261.693 188.718 260.595C186.766 259.497 184.143 258.399 180.849 257.301C177.677 256.081 174.261 254.739 170.601 253.275C167.063 251.811 163.647 249.981 160.353 247.785C157.181 245.589 154.558 242.905 152.484 239.733C150.532 236.561 149.556 232.718 149.556 228.204C149.556 223.568 150.776 218.505 153.216 213.015C155.656 207.403 159.133 202.096 163.647 197.094C168.161 191.97 173.529 187.822 179.751 184.65C186.095 181.356 193.049 179.709 200.613 179.709C205.981 179.709 210.861 180.563 215.253 182.271C219.767 183.979 223.549 185.931 226.599 188.127L217.083 209.538C214.521 207.83 211.776 206.549 208.848 205.695C205.92 204.719 203.114 204.231 200.43 204.231C197.014 204.231 193.72 204.902 190.548 206.244C187.498 207.586 184.753 209.355 182.313 211.551C179.995 213.625 178.165 215.882 176.823 218.322C175.481 220.762 174.81 223.08 174.81 225.276C174.81 227.472 175.847 229.424 177.921 231.132C180.117 232.718 182.923 234.243 186.339 235.707C189.755 237.049 193.354 238.452 197.136 239.916C200.918 241.38 204.517 243.027 207.933 244.857C211.349 246.687 214.094 248.883 216.168 251.445C218.364 254.007 219.462 257.118 219.462 260.778C219.462 266.024 217.815 271.453 214.521 277.065C211.349 282.799 206.591 288.106 200.247 292.986C193.903 297.866 186.095 301.77 176.823 304.698C167.673 307.748 157.059 309.273 144.981 309.273C136.197 309.273 128.145 308.236 120.825 306.162C113.505 304.21 107.1 301.221 101.61 297.195C96.242 293.291 92.033 288.35 88.983 282.372C86.055 276.516 84.591 269.684 84.591 261.876ZM288.14 267.915C276.794 267.915 268.01 266.756 261.788 264.438C255.688 262.12 251.418 258.521 248.978 253.641C246.538 248.639 245.135 242.356 244.769 234.792L240.926 133.044H266.546L270.389 222.531C270.633 228.143 271.243 232.352 272.219 235.158C273.195 237.964 275.025 239.855 277.709 240.831C280.515 241.807 284.602 242.295 289.97 242.295C294.606 242.295 297.9 243.515 299.852 245.955C301.926 248.273 302.963 251.201 302.963 254.739C302.963 258.521 301.682 261.693 299.12 264.255C296.558 266.695 292.898 267.915 288.14 267.915ZM288.389 267.915L290.219 242.478C294.977 242.6 299.369 242.539 303.395 242.295C307.421 242.051 311.02 241.685 314.192 241.197C317.486 240.709 320.353 240.16 322.793 239.55C325.355 238.94 327.49 238.391 329.198 237.903C333.346 236.561 336.884 234.975 339.812 233.145C342.74 231.193 344.997 228.997 346.583 226.557C348.169 224.117 348.962 221.494 348.962 218.688C348.962 216.492 348.474 214.296 347.498 212.1C346.644 209.782 345.363 207.891 343.655 206.427C341.947 204.963 339.934 204.231 337.616 204.231C335.42 204.231 333.407 204.902 331.577 206.244C329.747 207.586 328.283 209.416 327.185 211.734C326.087 213.93 325.538 216.492 325.538 219.42C325.538 221.982 326.148 224.422 327.368 226.74C328.588 228.936 330.296 231.071 332.492 233.145C334.688 235.219 337.311 237.171 340.361 239.001L316.022 248.334C313.338 245.772 310.776 243.027 308.336 240.099C306.018 237.171 304.066 233.877 302.48 230.217C301.016 226.435 300.284 222.226 300.284 217.59C300.284 211.978 301.382 206.854 303.578 202.218C305.774 197.582 308.702 193.617 312.362 190.323C316.022 186.907 320.109 184.284 324.623 182.454C329.137 180.624 333.651 179.709 338.165 179.709C345.485 179.709 351.829 181.417 357.197 184.833C362.565 188.249 366.713 192.702 369.641 198.192C372.691 203.682 374.216 209.66 374.216 216.126C374.216 222.104 373.118 227.472 370.922 232.23C368.726 236.866 365.737 241.014 361.955 244.674C358.295 248.212 354.208 251.323 349.694 254.007C345.302 256.691 340.849 258.948 336.335 260.778C334.139 261.754 331.394 262.669 328.1 263.523C324.806 264.377 321.085 265.17 316.937 265.902C312.789 266.512 308.336 267 303.578 267.366C298.82 267.732 293.757 267.915 288.389 267.915ZM385.013 267.915C377.937 267.915 370.983 267.549 364.151 266.817C357.319 266.085 350.975 264.987 345.119 263.523C339.385 262.059 334.383 260.29 330.113 258.216L342.74 238.452C346.4 239.428 350.67 240.221 355.55 240.831C360.552 241.319 365.737 241.685 371.105 241.929C376.595 242.173 381.841 242.295 386.843 242.295C391.479 242.295 394.773 243.515 396.725 245.955C398.799 248.273 399.836 251.201 399.836 254.739C399.836 258.521 398.555 261.693 395.993 264.255C393.431 266.695 389.771 267.915 385.013 267.915ZM338.348 162.69C334.566 162.69 331.333 161.409 328.649 158.847C326.087 156.285 324.806 153.113 324.806 149.331C324.806 145.549 326.087 142.316 328.649 139.632C331.333 136.948 334.566 135.606 338.348 135.606C342.008 135.606 345.119 136.948 347.681 139.632C350.365 142.316 351.707 145.549 351.707 149.331C351.707 153.113 350.365 156.285 347.681 158.847C345.119 161.409 342.008 162.69 338.348 162.69ZM385.25 267.915L387.08 242.295C391.472 242.295 395.254 241.868 398.426 241.014C401.598 240.16 404.282 238.452 406.478 235.89C408.674 233.206 410.504 229.302 411.968 224.178C413.554 219.054 414.957 212.222 416.177 203.682L440.15 207.708C439.906 209.538 439.54 211.673 439.052 214.113C438.686 216.553 438.32 219.054 437.954 221.616C437.71 224.056 437.588 226.374 437.588 228.57C437.588 230.766 438.015 232.718 438.869 234.426C439.723 236.134 441.065 237.598 442.895 238.818C444.847 239.916 447.348 240.77 450.398 241.38C453.57 241.99 457.413 242.295 461.927 242.295C466.563 242.295 469.857 243.515 471.809 245.955C473.761 248.273 474.737 251.201 474.737 254.739C474.737 258.521 473.456 261.693 470.894 264.255C468.454 266.695 464.855 267.915 460.097 267.915C454.607 267.915 449.605 267.488 445.091 266.634C440.699 265.78 436.856 264.377 433.562 262.425C430.39 260.351 427.767 257.667 425.693 254.373C423.741 250.957 422.521 246.809 422.033 241.929H430.817C428.621 247.785 425.815 252.482 422.399 256.02C419.105 259.436 415.384 261.998 411.236 263.706C407.088 265.414 402.757 266.512 398.243 267C393.851 267.61 389.52 267.915 385.25 267.915ZM436.307 310.371C432.769 310.371 429.719 309.09 427.157 306.528C424.717 304.088 423.497 301.16 423.497 297.744C423.497 294.206 424.717 291.156 427.157 288.594C429.719 286.032 432.769 284.751 436.307 284.751C439.723 284.751 442.651 286.032 445.091 288.594C447.531 291.156 448.751 294.206 448.751 297.744C448.751 301.16 447.531 304.088 445.091 306.528C442.651 309.09 439.723 310.371 436.307 310.371ZM404.648 310.371C401.11 310.371 398.06 309.09 395.498 306.528C393.058 304.088 391.838 301.16 391.838 297.744C391.838 294.206 393.058 291.156 395.498 288.594C398.06 286.032 401.11 284.751 404.648 284.751C408.064 284.751 410.992 286.032 413.432 288.594C415.872 291.156 417.092 294.206 417.092 297.744C417.092 301.16 415.872 304.088 413.432 306.528C410.992 309.09 408.064 310.371 404.648 310.371ZM460.13 267.915L461.96 242.295C465.986 242.295 469.28 241.99 471.842 241.38C474.404 240.648 476.478 239.123 478.064 236.805C479.772 234.365 481.236 230.766 482.456 226.008C483.798 221.128 485.262 214.54 486.848 206.244L510.638 210.636C510.272 212.466 509.845 214.601 509.357 217.041C508.869 219.481 508.442 221.982 508.076 224.544C507.71 226.984 507.527 229.18 507.527 231.132C507.527 234.548 508.625 237.293 510.821 239.367C513.017 241.319 517.165 242.295 523.265 242.295C526.315 242.295 528.938 241.99 531.134 241.38C533.452 240.648 535.404 239.123 536.99 236.805C538.698 234.365 540.162 230.644 541.382 225.642C542.724 220.518 544.005 213.625 545.225 204.963L569.381 208.806C568.893 211.612 568.405 214.601 567.917 217.773C567.429 220.945 567.002 223.873 566.636 226.557C566.27 229.241 566.087 231.437 566.087 233.145C566.087 234.731 566.514 236.256 567.368 237.72C568.344 239.062 570.052 240.16 572.492 241.014C575.054 241.868 578.653 242.295 583.289 242.295C586.583 242.295 589.389 241.868 591.707 241.014C594.147 240.16 595.977 238.757 597.197 236.805C598.539 234.853 599.21 232.291 599.21 229.119C599.21 224.605 598.173 218.688 596.099 211.368C594.025 204.048 591.585 196.362 588.779 188.31L614.582 180.624C616.534 185.87 618.242 191.482 619.706 197.46C621.292 203.316 622.512 209.05 623.366 214.662C624.342 220.152 624.83 224.971 624.83 229.119C624.83 235.341 623.854 240.892 621.902 245.772C619.95 250.53 617.205 254.556 613.667 257.85C610.129 261.144 605.92 263.645 601.04 265.353C596.16 267.061 590.792 267.915 584.936 267.915C577.86 267.915 572.065 267.244 567.551 265.902C563.037 264.438 559.56 262.059 557.12 258.765C554.802 255.349 553.277 250.713 552.545 244.857H558.767C556.205 252.055 553.338 257.301 550.166 260.595C546.994 263.767 543.212 265.78 538.82 266.634C534.55 267.488 529.182 267.915 522.716 267.915C518.69 267.915 514.542 267.488 510.272 266.634C506.124 265.658 502.403 263.462 499.109 260.046C495.815 256.63 493.375 251.323 491.789 244.125L501.671 243.759C499.109 250.957 495.754 256.264 491.606 259.68C487.58 263.096 482.944 265.353 477.698 266.451C472.452 267.427 466.596 267.915 460.13 267.915ZM555.839 154.638C552.789 154.638 550.105 153.479 547.787 151.161C545.591 148.843 544.493 146.098 544.493 142.926C544.493 139.754 545.591 137.07 547.787 134.874C550.105 132.678 552.789 131.58 555.839 131.58C559.011 131.58 561.695 132.678 563.891 134.874C566.087 137.07 567.185 139.754 567.185 142.926C567.185 146.098 566.087 148.843 563.891 151.161C561.695 153.479 559.011 154.638 555.839 154.638ZM541.199 178.794C538.149 178.794 535.465 177.635 533.147 175.317C530.951 172.999 529.853 170.254 529.853 167.082C529.853 163.91 530.951 161.226 533.147 159.03C535.465 156.834 538.149 155.736 541.199 155.736C544.371 155.736 547.055 156.834 549.251 159.03C551.447 161.226 552.545 163.91 552.545 167.082C552.545 170.254 551.447 172.999 549.251 175.317C547.055 177.635 544.371 178.794 541.199 178.794ZM569.564 178.794C566.514 178.794 563.83 177.635 561.512 175.317C559.316 172.999 558.218 170.254 558.218 167.082C558.218 163.91 559.316 161.226 561.512 159.03C563.83 156.834 566.514 155.736 569.564 155.736C572.736 155.736 575.42 156.834 577.616 159.03C579.812 161.226 580.91 163.91 580.91 167.082C580.91 170.254 579.812 172.999 577.616 175.317C575.42 177.635 572.736 178.794 569.564 178.794ZM636.944 309.273L627.611 286.581C634.077 284.385 639.994 281.823 645.362 278.895C650.852 275.967 655.61 272.734 659.636 269.196C663.662 265.658 666.773 261.815 668.969 257.667C671.165 253.397 672.263 248.822 672.263 243.942C672.263 238.818 671.104 233.206 668.786 227.106C666.468 221.006 663.662 214.784 660.368 208.44L684.341 196.911C686.537 200.693 688.428 204.78 690.014 209.172C691.722 213.442 693.125 217.285 694.223 220.701C695.321 224.117 696.053 226.435 696.419 227.655C698.127 233.511 700.445 237.415 703.373 239.367C706.423 241.319 711.303 242.295 718.013 242.295C722.649 242.295 725.943 243.515 727.895 245.955C729.969 248.273 731.006 251.201 731.006 254.739C731.006 258.521 729.725 261.693 727.163 264.255C724.601 266.695 720.941 267.915 716.183 267.915C711.181 267.915 706.789 267.183 703.007 265.719C699.225 264.255 696.175 262.12 693.857 259.314C691.661 256.508 690.258 253.214 689.648 249.432L696.419 253.275C695.687 259.741 693.552 265.841 690.014 271.575C686.598 277.431 682.145 282.799 676.655 287.679C671.165 292.559 665.004 296.829 658.172 300.489C651.34 304.149 644.264 307.077 636.944 309.273ZM716.401 267.915L718.231 242.295C725.551 242.295 731.163 241.929 735.067 241.197C738.971 240.465 741.655 239.123 743.119 237.171C744.705 235.097 745.498 232.169 745.498 228.387C745.498 224.971 745.01 220.884 744.034 216.126C743.18 211.368 742.021 206.427 740.557 201.303C739.215 196.179 737.751 191.482 736.165 187.212L761.419 180.258C763.005 184.406 764.53 189.225 765.994 194.715C767.458 200.205 768.678 205.878 769.654 211.734C770.63 217.468 771.118 223.019 771.118 228.387C771.118 236.683 769.776 243.454 767.092 248.7C764.408 253.824 760.626 257.789 755.746 260.595C750.988 263.401 745.254 265.353 738.544 266.451C731.834 267.427 724.453 267.915 716.401 267.915ZM744.034 328.854C740.984 328.854 738.422 327.817 736.348 325.743C734.396 323.669 733.42 321.168 733.42 318.24C733.42 315.19 734.396 312.567 736.348 310.371C738.422 308.175 740.984 307.077 744.034 307.077C746.962 307.077 749.463 308.175 751.537 310.371C753.611 312.567 754.648 315.19 754.648 318.24C754.648 321.168 753.611 323.669 751.537 325.743C749.463 327.817 746.962 328.854 744.034 328.854ZM758.125 305.247C755.075 305.247 752.513 304.21 750.439 302.136C748.487 300.062 747.511 297.561 747.511 294.633C747.511 291.583 748.487 288.96 750.439 286.764C752.513 284.568 755.075 283.47 758.125 283.47C761.053 283.47 763.554 284.568 765.628 286.764C767.702 288.96 768.739 291.583 768.739 294.633C768.739 297.561 767.702 300.062 765.628 302.136C763.554 304.21 761.053 305.247 758.125 305.247ZM730.675 305.247C727.625 305.247 725.063 304.21 722.989 302.136C720.915 300.062 719.878 297.561 719.878 294.633C719.878 291.583 720.915 288.96 722.989 286.764C725.063 284.568 727.625 283.47 730.675 283.47C733.481 283.47 735.921 284.568 737.995 286.764C740.191 288.96 741.289 291.583 741.289 294.633C741.289 297.561 740.191 300.062 737.995 302.136C735.921 304.21 733.481 305.247 730.675 305.247Z" fill="white"/>
<circle cx="556" cy="143" r="13" fill="#FAFF00"/>
<circle cx="569" cy="168" r="13" fill="#FAFF00"/>
<circle cx="542" cy="168" r="13" fill="#FAFF00"/>
<circle cx="569" cy="168" r="13" fill="#FAFF00"/>
<circle cx="542" cy="168" r="13" fill="#FAFF00"/>
<circle cx="403.5" cy="297.5" r="13.5" fill="#FAFF00"/>
<circle cx="338" cy="149" r="14" fill="#FAFF00"/>
<circle cx="436.5" cy="297.5" r="13.5" fill="#FAFF00"/>
<circle cx="744" cy="318" r="13" fill="#FAFF00"/>
<circle cx="730" cy="294" r="13" fill="#FAFF00"/>
<circle cx="758" cy="294" r="13" fill="#FAFF00"/>
</g>
<defs>
<clipPath id="clip0_8_2">
<rect width="862" height="400" fill="white"/>
</clipPath>
</defs>
</svg>
