<svg width="400" height="400" viewBox="0 0 400 400" fill="none" xmlns="http://www.w3.org/2000/svg">
<g clip-path="url(#clip0_7_3)">
<circle cx="200" cy="200" r="200" fill="black"/>
<circle cx="200" cy="200" r="186" fill="#FAFF00"/>
<path d="M182 102V221.7C168.84 214.14 152.6 211.2 135.38 217.22C116.62 223.94 102.2 240.6 98.84 260.2C97.2867 269.019 97.8673 278.082 100.533 286.631C103.199 295.18 107.873 302.966 114.164 309.34C120.454 315.713 128.18 320.487 136.693 323.264C145.207 326.04 154.261 326.739 163.1 325.3C190.54 320.96 210 295.76 210 267.9V130H238C253.4 130 266 117.4 266 102C266 86.6 253.4 74 238 74H210C194.6 74 182 86.6 182 102Z" fill="black"/>
<rect x="210" y="65" width="105" height="167" fill="#FAFF00"/>
<path d="M182.207 206V51.8182H240.026C251.87 51.8182 261.808 54.0265 269.838 58.4432C277.919 62.8598 284.017 68.9328 288.132 76.6619C292.298 84.3409 294.381 93.0739 294.381 102.861C294.381 112.748 292.298 121.531 288.132 129.21C283.966 136.889 277.818 142.937 269.688 147.354C261.557 151.72 251.544 153.903 239.649 153.903H201.33V130.942H235.885C242.811 130.942 248.482 129.737 252.899 127.328C257.316 124.919 260.578 121.607 262.686 117.391C264.844 113.175 265.923 108.331 265.923 102.861C265.923 97.3902 264.844 92.572 262.686 88.4062C260.578 84.2405 257.291 81.0033 252.824 78.6946C248.407 76.3357 242.711 75.1562 235.734 75.1562H210.138V206H182.207Z" fill="black"/>
</g>
<defs>
<clipPath id="clip0_7_3">
<rect width="400" height="400" fill="white"/>
</clipPath>
</defs>
</svg>
