<svg width="512" height="506" viewBox="0 0 512 506" fill="none" xmlns="http://www.w3.org/2000/svg">
<path d="M499.875 434.922L382.163 317.201C402.862 284.299 413.82 246.209 413.771 207.338C413.771 93.0741 321.141 0.456909 206.881 0.456909C92.6215 0.456909 0 93.0741 0 207.338C0 321.606 92.6171 414.215 206.881 414.215C249.142 414.269 290.397 401.319 325.046 377.124L441.357 493.444C445.198 497.287 449.76 500.333 454.781 502.409C459.802 504.484 465.183 505.548 470.616 505.539C476.051 505.548 481.434 504.485 486.458 502.409C491.481 500.334 496.045 497.287 499.888 493.444C507.645 485.681 512.001 475.155 511.999 464.18C511.996 453.206 507.635 442.681 499.875 434.922ZM206.881 347.188C129.652 347.188 67.0394 284.58 67.0394 207.347C67.0394 130.113 129.652 67.5006 206.881 67.5006C284.114 67.5006 346.723 130.113 346.723 207.347C346.723 284.58 284.114 347.188 206.881 347.188Z" fill="white"/>
</svg>
