<svg width="571" height="571" viewBox="0 0 571 571" fill="none" xmlns="http://www.w3.org/2000/svg">
<g clip-path="url(#clip0_17_2)">
<path d="M387.337 106.181C385.928 104.96 384.273 104.056 382.485 103.53C380.696 103.003 378.816 102.867 376.97 103.13L194.78 129.157C188.368 130.073 183.607 135.564 183.607 142.041V294.617C175.899 290.126 166.95 287.54 157.404 287.54C128.604 287.54 105.175 310.971 105.175 339.77C105.175 368.57 128.604 392 157.404 392C186.204 392 209.634 368.57 209.634 339.77V205.382L365.797 183.072V268.59C358.089 264.099 349.141 261.514 339.595 261.514C310.795 261.514 287.365 284.944 287.365 313.743C287.365 342.543 310.795 365.973 339.595 365.973C368.395 365.973 391.825 342.543 391.825 313.743V116.013C391.824 114.148 391.424 112.306 390.649 110.609C389.875 108.913 388.745 107.403 387.337 106.181ZM157.404 365.972C142.956 365.972 131.201 354.217 131.201 339.77C131.201 325.322 142.956 313.567 157.404 313.567C171.852 313.567 183.606 325.322 183.606 339.77C183.606 354.217 171.852 365.972 157.404 365.972ZM365.797 156.78L209.634 179.09V153.327L365.797 131.018V156.78ZM339.594 339.945C325.147 339.945 313.392 328.19 313.392 313.742C313.392 299.295 325.147 287.54 339.594 287.54C354.042 287.54 365.797 299.295 365.797 313.742C365.797 328.19 354.042 339.945 339.594 339.945Z" fill="#FAFF00"/>
</g>
<path d="M391.5 486C338.833 486 296 443.167 296 390.5C296 337.833 338.833 295 391.5 295C444.167 295 487 337.833 487 390.5C487 443.167 444.167 486 391.5 486Z" fill="#222222"/>
<path d="M430.994 354.635C426.224 349.866 418.506 349.866 413.65 354.635L393.271 375.014L372.632 354.375C367.862 349.605 360.145 349.605 355.288 354.375C350.519 359.144 350.519 366.862 355.288 371.719L375.927 392.358L355.722 412.563C350.952 417.333 350.952 425.051 355.722 429.907C358.15 432.335 365.348 436.498 373.066 429.907L393.271 409.701L413.737 430.167C421.455 436.758 428.652 432.595 431.08 430.167C435.85 425.398 435.85 417.68 431.08 412.823L410.615 392.358L430.994 371.979C435.763 367.123 435.763 359.405 430.994 354.635Z" fill="white"/>
<path d="M450.648 294.508V102.252C450.648 80.6594 433.044 63.0555 411.451 63.0555H103.252C81.6594 63.0555 64.0555 80.6594 64.0555 102.252V410.364C64.0555 431.957 81.6594 449.561 103.252 449.561H295.421C315.28 481.907 350.921 503.5 391.592 503.5C453.856 503.5 504.587 452.856 504.587 390.505C504.587 350.008 482.907 314.366 450.648 294.508ZM391.592 479.132C342.741 479.132 303.139 439.415 303.139 390.679C303.139 341.943 342.856 302.226 391.592 302.226C440.415 302.226 480.045 341.943 480.045 390.679C480.045 439.415 440.444 479.132 391.592 479.132ZM88.5102 410.364V171.454H257.308H426.106V283.148C415.18 279.679 403.646 277.684 391.592 277.684C329.328 277.684 278.598 328.328 278.598 390.679C278.598 402.733 280.505 414.266 284.061 425.193H103.252C95.1875 425.106 88.5102 418.516 88.5102 410.364ZM88.5102 102.252C88.5102 94.1008 95.1008 87.5102 103.252 87.5102H411.364C419.516 87.5102 426.106 94.1008 426.106 102.252V171.454H88.5102V102.252Z" fill="white"/>
<defs>
<clipPath id="clip0_17_2">
<rect width="289" height="289" fill="white" transform="translate(104 103)"/>
</clipPath>
</defs>
</svg>
